<?xml version="1.0" encoding="UTF-8"?>
<!DOCTYPE svg PUBLIC "-//W3C//DTD SVG 1.1//EN" "http://www.w3.org/Graphics/SVG/1.1/DTD/svg11.dtd">
<!-- Creator: CorelDRAW -->
<svg xmlns="http://www.w3.org/2000/svg" xml:space="preserve" width="100%" height="100%" style="shape-rendering:geometricPrecision; text-rendering:geometricPrecision; image-rendering:optimizeQuality; fill-rule:evenodd; clip-rule:evenodd"
viewBox="0 0 170946 170889"
 xmlns:xlink="http://www.w3.org/1999/xlink">
 <defs>
  <style type="text/css">
   <![CDATA[
    .fil0 {fill:none}
    .fil1 {fill:#1E1F20}
    .fil3 {fill:#1F1A17;fill-rule:nonzero}
    .fil2 {fill:#1F1A17;fill-rule:nonzero}
   ]]>
  </style>
 </defs>
 <g id="Layer_x0020_1">
  <metadata id="CorelCorpID_0Corel-Layer"/>
  <path class="fil0" d="M136078 135400c13250,-13242.9 20700,-31087.4 20700,-49956.7 0,-18869.7 -7450,-36712.6 -20700,-49955.5 -13367.7,-13361.4 -31288.6,-20711.4 -50052.8,-20711.4 -18763.8,0 -36684.6,7351.57 -50052.8,20711.4 -13250,13241.3 -20698.4,31085.8 -20698.4,49955.5 0,18869.3 7448.43,36713.8 20698.4,49956.7 13368.1,13359.8 31289,20709.8 50052.8,20709.8 18764.2,0 36685,-7350 50052.8,-20709.8z"/>
  <path class="fil1" d="M136078 135419c-12685.8,12679.1 -29474.8,19933.5 -47191.3,20640.6l0 -8183.46c0,-1452.76 -1187.8,-2640.16 -2638.98,-2640.16l-375.197 0c-1452.76,0 -2638.58,1187.4 -2638.58,2640.16l0 8184.65c-17741.7,-691.732 -34558.7,-7945.67 -47261.4,-20641.7 -12534.6,-12527.6 -19868.1,-29176.4 -20624.8,-46912.2l7665.35 0c1452.76,0 2640.16,-1187.8 2640.16,-2640.55l0 -374.803c0,-1452.76 -1187.4,-2638.98 -2640.16,-2638.98l-7675.2 0c654.331,-17898.8 7998.82,-34716.5 20634.6,-47344.5 12705.5,-12698.4 29528,-19954.3 47273.6,-20642.9l0 6177.17c0,1452.76 1186.22,2638.98 2638.98,2638.98l375.197 0c1452.76,0 2638.58,-1186.22 2638.58,-2638.98l0 -6175.98c17712.6,711.024 34496.1,7965.35 47179.1,20641.7 12636.2,12629.1 19980.7,29445.7 20635,47344.5l-8777.95 0c-1452.76,0 -2640.16,1186.22 -2640.16,2638.98l0 374.803c0,1452.76 1187.4,2640.55 2640.16,2640.55l8768.11 0c-755.512,17735.8 -8090.16,34384.6 -20625.2,46912.2zm32229.5 -52566.5l-5101.57 0c-657.087,-19665.4 -8707.09,-38154.3 -22583.5,-52023.6 -13897.2,-13889 -32303.9,-21825.2 -51723.6,-22541.7l0 -5650c0,-1451.18 -1185.83,-2637.4 -2638.58,-2637.4l-375.197 0c-1452.76,0 -2638.98,1186.22 -2638.98,2637.4l0 5647.24c-19452.8,694.488 -37897.2,8633.46 -51818.1,22544.5 -13876.4,13869.3 -21926.4,32358.3 -22583.1,52023.6l-6204.33 0c-1452.76,0 -2640.16,1186.22 -2640.16,2638.98l0 374.803c0,1452.76 1187.4,2640.55 2640.16,2640.55l6213.78 0c761.417,19503.9 8798.82,37823.6 22573.6,51590.2 13916.9,13909.8 32357.1,21847.2 51805.9,22544.5l0 5608.27c0,1451.18 1185.83,2638.98 2638.58,2638.98l375.197 0c1451.18,0 2638.98,-1187.8 2638.98,-2638.98l0 -5611.02c19422,-712.598 37835.8,-8650 51735.8,-22541.7 13775.2,-13766.5 21812.6,-32086.2 22572.4,-51590.2l5112.6 0c1451.18,0 2638.58,-1187.8 2638.58,-2640.55l0 -374.803c0,-1452.76 -1187.4,-2638.98 -2638.58,-2638.98z"/>
  <polygon class="fil2" points="107881,139262 65755.1,139262 65755.1,123770 78344.1,123770 78344.1,72796.5 65755.1,72796.5 65755.1,57228.7 95600.8,57228.7 95600.8,123770 107881,123770 "/>
  <path class="fil3" d="M86243.3 50210.2c-2788.98,0 -5201.57,-1026.38 -7169.69,-3048.43 -1961.02,-2015.35 -2956.69,-4448.82 -2956.69,-7230.71 0,-2781.89 995.669,-5215.35 2956.69,-7231.89 1969.69,-2022.44 4381.89,-3047.24 7169.69,-3047.24 2885.83,0 5347.24,997.244 7314.96,2963.78 1966.93,1965.35 2964.17,4427.95 2964.17,7315.35 0,2784.65 -1023.62,5219.29 -3040.55,7237.4 -2018.11,2018.11 -4453.94,3041.73 -7238.58,3041.73z"/>
 </g>
</svg>
